<svg xmlns="http://www.w3.org/2000/svg" viewBox="0 0 32 32">
  <style>path {fill: #222222} @media (prefers-color-scheme:dark) {path {fill: #ffffff} }</style>
  <path d="M4.978 7.811C6.64 6.38 9.181 5.214 11.997 6.67c2.43 1.255 4.42 4.212 6.185 8.772 1.697 4.383 3.168 5.897 3.983 6.318.287.149.515.168.747.115.267-.06.628-.24 1.104-.65.972-.836 1.892-2.212 2.61-3.537a23.973 23.973 0 001.006-2.1l.048-.118v-.001l.012-.03L32 17.194l-.07.172a28.59 28.59 0 01-1.215 2.537c-.797 1.47-2.04 3.448-3.664 4.846-1.663 1.432-4.204 2.597-7.02 1.142-2.43-1.255-4.42-4.212-6.185-8.771-1.697-4.384-3.168-5.898-3.983-6.32-.288-.148-.516-.167-.748-.114-.266.06-.627.24-1.103.65-.972.837-1.892 2.213-2.61 3.537a23.95 23.95 0 00-1.054 2.218v.002l-.012.029L0 15.439l.028-.07v-.003l.07-.171a28.588 28.588 0 011.215-2.537c.797-1.472 2.041-3.449 3.664-4.847z"/>
</svg>